<svg width="188" height="189" viewBox="0 0 188 189" fill="none" xmlns="http://www.w3.org/2000/svg">
<g id="mdi:medal-outline">
<path id="Vector" d="M103.82 138.041L87 128.143L70.1797 138.041L74.6422 118.932L59.8244 106.116L79.3336 104.457L87 86.55L94.6664 104.457L114.176 106.116L99.3577 118.932M132.769 37.9199H41.2305V49.3623L69.0355 70.1874C59.3347 74.3271 51.3614 81.6902 46.4639 91.0314C41.5665 100.373 40.0455 111.119 42.1582 121.452C44.2709 131.785 49.8876 141.072 58.0584 147.741C66.2293 154.411 76.4528 158.053 87 158.053C97.5472 158.053 107.771 154.411 115.942 147.741C124.112 141.072 129.729 131.785 131.842 121.452C133.955 111.119 132.434 100.373 127.536 91.0314C122.639 81.6902 114.665 74.3271 104.965 70.1874L132.769 49.3623M121.327 112.295C121.33 118.796 119.487 125.164 116.013 130.659C112.538 136.153 107.575 140.548 101.7 143.332C95.8255 146.116 89.2812 147.174 82.8285 146.384C76.3759 145.594 70.2802 142.988 65.2507 138.869C60.2212 134.75 56.4647 129.288 54.4182 123.118C52.3717 116.947 52.1194 110.323 53.6906 104.015C55.2619 97.7066 58.592 91.9743 63.2937 87.4848C67.9953 82.9954 73.8751 79.9332 80.249 78.6547C84.7031 77.7391 89.2969 77.7391 93.751 78.6547C101.526 80.2142 108.521 84.4172 113.548 90.5496C118.575 96.6821 121.323 104.366 121.327 112.295ZM90.6043 66.5258H83.3956L60.5109 49.3623H113.947L90.6043 66.5258Z" fill="#E2E2E2"/>
</g>
</svg>
