<svg width="183" height="61" viewBox="0 0 183 61" fill="none" xmlns="http://www.w3.org/2000/svg">
<rect x="0.373901" y="16.2585" width="179.14" height="44" rx="8" transform="rotate(-5.02389 0.373901 16.2585)" fill="white"/>
<path d="M15.4149 37.1698C15.2005 34.7312 15.6992 32.6395 16.9111 30.8947C18.1389 29.1484 19.6932 28.1926 21.5739 28.0273C23.4547 27.862 25.1141 28.5593 26.5522 30.1194C28.0049 31.6621 28.8328 33.589 29.036 35.9001C29.2602 38.4503 28.8034 40.5624 27.6656 42.2364C26.5424 43.8932 25.0092 44.815 23.0661 45.0018C21.1854 45.1672 19.4903 44.5211 17.9809 43.0637C16.4874 41.6049 15.632 39.6403 15.4149 37.1698ZM17.1861 37.0382C17.3459 38.8552 17.9853 40.373 19.1043 41.5917C20.2392 42.809 21.508 43.356 22.9106 43.2327C24.2973 43.1108 25.4113 42.3543 26.2527 40.9633C27.0927 39.5563 27.4322 37.9364 27.271 36.1034C27.1169 34.3502 26.4935 32.831 25.4007 31.5457C24.3239 30.2591 23.1002 29.676 21.7294 29.7965C20.3269 29.9198 19.1765 30.7196 18.2783 32.1959C17.3961 33.6708 17.032 35.2849 17.1861 37.0382ZM33.4692 49.3395L32.0085 32.7236C31.9903 32.5164 32.0639 32.3493 32.2295 32.2223C32.3936 32.0794 32.5952 31.9974 32.8343 31.9764C33.424 31.9246 33.7385 32.1218 33.7777 32.5681L34.0068 35.174C35.3178 32.7298 37.4556 31.3774 40.4201 31.1168C41.7749 30.9977 42.9624 31.3511 43.9826 32.1769C45.0174 32.9854 45.588 33.9953 45.6945 35.2066C45.8192 36.6252 45.5436 37.9664 44.8677 39.2305C44.1904 40.4786 43.2509 41.4847 42.0492 42.2489C40.8635 43.0117 39.5852 43.4533 38.2145 43.5738C36.8916 43.6901 35.7055 43.3527 34.6562 42.5615L35.2384 49.184C35.2762 49.6143 34.9923 49.8561 34.3866 49.9094C34.1475 49.9304 33.9354 49.8928 33.7503 49.7966C33.5811 49.6991 33.4874 49.5467 33.4692 49.3395ZM34.3317 39.1448C34.4172 40.1171 34.8642 40.8166 35.6727 41.2434C36.4971 41.6689 37.2918 41.848 38.0569 41.7807C38.9813 41.6994 39.9021 41.3936 40.8192 40.8633C41.7362 40.3329 42.491 39.6 43.0833 38.6646C43.6902 37.7118 43.9474 36.7094 43.8549 35.6574C43.7597 34.5736 43.3483 33.8228 42.6209 33.4049C41.9095 32.9855 41.0756 32.8179 40.1193 32.902C39.2267 32.9805 38.305 33.3667 37.3541 34.0606C36.4178 34.7372 35.6628 35.5585 35.0892 36.5244C34.5142 37.4744 34.2617 38.3479 34.3317 39.1448ZM49.7797 47.9057L48.319 31.2897C48.3008 31.0825 48.3745 30.9155 48.54 30.7885C48.7041 30.6455 48.9057 30.5636 49.1448 30.5426C49.7345 30.4907 50.049 30.6879 50.0882 31.1342L50.3173 33.7402C51.6283 31.296 53.7661 29.9436 56.7307 29.683C58.0854 29.5639 59.2729 29.9172 60.2932 30.7431C61.3279 31.5515 61.8986 32.5615 62.0051 33.7728C62.1298 35.1913 61.8542 36.5326 61.1783 37.7966C60.501 39.0448 59.5615 40.0509 58.3598 40.8151C57.174 41.5778 55.8958 42.0195 54.5251 42.14C53.2022 42.2563 52.016 41.9188 50.9667 41.1277L51.5489 47.7501C51.5867 48.1805 51.3028 48.4223 50.6972 48.4755C50.4581 48.4965 50.246 48.459 50.0608 48.3628C49.8916 48.2652 49.7979 48.1129 49.7797 47.9057ZM50.6423 37.711C50.7278 38.6832 51.1747 39.3828 51.9832 39.8096C52.8076 40.235 53.6024 40.4141 54.3674 40.3469C55.2919 40.2656 56.2126 39.9598 57.1297 39.4295C58.0468 38.8991 58.8015 38.1662 59.3939 37.2307C60.0007 36.2779 60.258 35.2756 60.1655 34.2236C60.0702 33.1398 59.6589 32.3889 58.9315 31.971C58.22 31.5517 57.3861 31.3841 56.4298 31.4682C55.5373 31.5466 54.6156 31.9328 53.6647 32.6268C52.7283 33.3034 51.9733 34.1246 51.3997 35.0906C50.8247 36.0406 50.5722 36.914 50.6423 37.711ZM64.5744 35.2575C64.4539 33.8868 64.7088 32.6758 65.3392 31.6246C65.9841 30.556 66.797 29.7537 67.7778 29.2178C68.7746 28.6804 69.8388 28.362 70.9704 28.2625C72.5643 28.1224 74.0838 28.5992 75.5292 29.6928C76.989 30.7691 77.7995 32.2237 77.9607 34.0566C78.1134 35.7939 77.6467 37.3367 76.5606 38.685C75.4731 40.0174 73.9651 40.7683 72.0365 40.9378C70.1398 41.1046 68.4601 40.6339 66.9975 39.5257C65.5334 38.4016 64.7257 36.9789 64.5744 35.2575ZM66.3457 35.1259C66.4452 36.2575 67.0542 37.248 68.1729 38.0973C69.2902 38.9306 70.5342 39.2871 71.9049 39.1666C73.1959 39.0531 74.2543 38.4862 75.0802 37.466C75.9219 36.4443 76.2924 35.3597 76.1915 34.2122C76.0934 33.0965 75.5633 32.091 74.6012 31.1958C73.6391 30.3006 72.4648 29.914 71.0781 30.0359C69.4524 30.1788 68.2287 30.7843 67.4071 31.8523C66.6014 32.919 66.2476 34.0102 66.3457 35.1259ZM81.3357 39.0844L80.4047 28.4932C80.3668 28.0629 80.6508 27.8211 81.2564 27.7679C81.4955 27.7468 81.6996 27.7851 81.8688 27.8827C82.054 27.9788 82.1556 28.1305 82.1738 28.3377L82.4366 31.3262C82.9273 29.966 83.5099 28.9189 84.1842 28.1851C84.8745 27.4498 85.8332 27.0282 87.0605 26.9203C87.9212 26.8447 88.7996 26.8799 89.6959 27.026C90.1777 27.2085 90.4354 27.491 90.4691 27.8735C90.4929 28.1445 90.4539 28.3406 90.3521 28.462C90.2504 28.5834 90.0734 28.6712 89.8212 28.7255C88.9915 28.6057 88.3217 28.5682 87.8116 28.6131C86.6322 28.7167 85.6075 29.3931 84.7375 30.6421C83.8675 31.891 83.2196 33.4739 82.7938 35.3905L83.1049 38.9289C83.1231 39.1361 83.0502 39.3111 82.8861 39.454C82.7205 39.581 82.5182 39.655 82.2792 39.676C81.6894 39.7279 81.375 39.5307 81.3357 39.0844ZM91.9512 27.6709C91.9302 27.4318 91.9678 27.2197 92.0639 27.0346C92.176 26.8481 92.3357 26.7457 92.5429 26.7275L93.3557 26.656L93.0972 23.7154C93.079 23.5082 93.1447 23.3418 93.2943 23.2162C93.4598 23.0892 93.6621 23.0152 93.9011 22.9942C94.5068 22.941 94.8286 23.1295 94.8664 23.5598L95.1249 26.5005L98.9501 26.1642C99.1574 26.146 99.3244 26.2197 99.4514 26.3852C99.577 26.5348 99.6503 26.7291 99.6713 26.9682C99.7246 27.5738 99.536 27.8956 99.1057 27.9334L95.2804 28.2697L95.7827 33.9836C95.9397 35.7688 96.6955 36.6018 98.0503 36.4827C98.6241 36.4322 99.1042 36.2294 99.4905 35.8742C99.8929 35.5176 100.059 34.9408 99.9889 34.1439C99.9693 33.9208 100.041 33.7298 100.204 33.5709C100.382 33.4107 100.599 33.3193 100.854 33.2969C101.093 33.2759 101.299 33.3301 101.471 33.4595C101.641 33.573 101.738 33.7573 101.76 34.0123C101.855 35.2729 101.557 36.2708 100.867 37.006C100.193 37.7399 99.3056 38.1552 98.2058 38.2519C95.6716 38.4746 94.2553 36.8886 93.9568 33.4937L93.5112 28.4252L92.6984 28.4967C92.2521 28.5359 92.003 28.2607 91.9512 27.6709ZM103.941 32.8569C103.928 32.7134 103.866 32.0042 103.754 30.7291C103.656 29.4367 103.539 28.0095 103.402 26.4475C103.383 26.2403 103.457 26.0732 103.623 25.9462C103.787 25.8033 103.988 25.7213 104.227 25.7003C104.817 25.6485 105.132 25.8457 105.171 26.292L105.715 32.4841C105.815 33.6157 106.291 34.4653 107.144 35.0328C108.011 35.5829 108.875 35.8202 109.736 35.7445C110.82 35.6492 111.941 35.1571 113.1 34.2683C114.273 33.3621 115.047 32.2982 115.421 31.0767L114.923 25.4106C114.885 24.9802 115.169 24.7384 115.775 24.6852C116.014 24.6642 116.218 24.7024 116.387 24.8C116.572 24.8962 116.674 25.0478 116.692 25.255L117.63 35.9179C117.648 36.1251 117.574 36.2922 117.409 36.4192C117.259 36.5448 117.065 36.6181 116.826 36.6391C116.22 36.6923 115.898 36.5038 115.86 36.0734L115.688 34.113C114.968 35.0597 114.073 35.8371 113.002 36.4452C111.947 37.0519 110.838 37.4064 109.674 37.5087C108.176 37.6404 106.875 37.2729 105.771 36.4063C104.683 35.5382 104.073 34.3551 103.941 32.8569ZM121.097 35.6372L120.157 24.9505C120.139 24.7433 120.205 24.5769 120.354 24.4513C120.52 24.3243 120.722 24.2503 120.961 24.2293C121.567 24.176 121.888 24.3646 121.926 24.7949L122.092 26.6836C122.814 25.7529 123.718 24.9908 124.806 24.3972C125.893 23.7877 127.018 23.4318 128.182 23.3295C129.68 23.1978 130.973 23.558 132.059 24.4101C133.161 25.2448 133.777 26.4113 133.909 27.9096C133.922 28.053 133.978 28.7869 134.078 30.1112C134.193 31.4181 134.319 32.8526 134.457 34.4146C134.475 34.6218 134.402 34.7968 134.238 34.9398C134.072 35.0667 133.87 35.1407 133.631 35.1618C133.041 35.2136 132.727 35.0164 132.688 34.5701L132.135 28.2824C132.035 27.1507 131.553 26.3178 130.686 25.7836C129.836 25.248 128.981 25.018 128.12 25.0937C126.957 25.196 125.796 25.6915 124.637 26.5804C123.493 27.4519 122.734 28.4985 122.359 29.7199L122.866 35.4817C122.904 35.9121 122.62 36.1539 122.014 36.2071C121.775 36.2281 121.563 36.1905 121.378 36.0944C121.208 35.9968 121.115 35.8444 121.097 35.6372ZM137.776 34.1228L136.841 23.4838C136.803 23.0534 137.087 22.8116 137.693 22.7584C137.932 22.7374 138.136 22.7757 138.305 22.8732C138.49 22.9694 138.592 23.1211 138.61 23.3283L139.546 33.9672C139.564 34.1744 139.491 34.3495 139.327 34.4924C139.161 34.6194 138.959 34.6934 138.72 34.7144C138.13 34.7662 137.816 34.569 137.776 34.1228ZM136.515 19.7781L136.478 19.3477C136.44 18.9174 136.724 18.6756 137.329 18.6224C137.568 18.6013 137.773 18.6396 137.942 18.7372C138.127 18.8333 138.229 18.985 138.247 19.1922L138.285 19.6225C138.303 19.8297 138.23 20.0048 138.066 20.1477C137.9 20.2747 137.698 20.3487 137.459 20.3697C136.869 20.4216 136.555 20.2243 136.515 19.7781ZM141.317 23.3312C141.296 23.0922 141.334 22.8801 141.43 22.6949C141.542 22.5084 141.702 22.406 141.909 22.3878L142.722 22.3163L142.463 19.3757C142.445 19.1685 142.511 19.0021 142.66 18.8765C142.826 18.7495 143.028 18.6755 143.267 18.6545C143.873 18.6013 144.194 18.7898 144.232 19.2202L144.491 22.1608L148.316 21.8245C148.523 21.8063 148.69 21.88 148.817 22.0455C148.943 22.1951 149.016 22.3894 149.037 22.6285C149.09 23.2341 148.902 23.5559 148.472 23.5937L144.646 23.93L145.149 29.644C145.306 31.4291 146.061 32.2621 147.416 32.143C147.99 32.0925 148.47 31.8897 148.856 31.5345C149.259 31.1779 149.425 30.6012 149.355 29.8042C149.335 29.5811 149.407 29.3901 149.569 29.2312C149.748 29.071 149.965 28.9796 150.22 28.9572C150.459 28.9362 150.665 28.9904 150.837 29.1198C151.007 29.2333 151.104 29.4176 151.126 29.6726C151.221 30.9332 150.923 31.9311 150.233 32.6663C149.558 33.4002 148.671 33.8155 147.572 33.9122C145.037 34.1349 143.621 32.5489 143.323 29.154L142.877 24.0855L142.064 24.157C141.618 24.1962 141.369 23.921 141.317 23.3312ZM153.331 28.5151L152.763 22.06C152.745 21.8528 152.811 21.6864 152.96 21.5608C153.125 21.4179 153.318 21.3366 153.541 21.317C154.131 21.2652 154.445 21.4624 154.485 21.9087L155.033 28.1486C155.085 28.7383 155.291 29.2503 155.65 29.6845C156.01 30.1187 156.439 30.4343 156.938 30.6313C157.453 30.827 157.947 30.9682 158.421 31.0551C158.909 31.1247 159.352 31.1419 159.75 31.1069C160.882 31.0074 161.919 30.5629 162.862 29.7733C163.804 28.9837 164.431 27.989 164.744 26.789L164.239 21.0512C164.201 20.6208 164.485 20.379 165.091 20.3258C165.33 20.3048 165.534 20.343 165.703 20.4406C165.888 20.5368 165.99 20.6884 166.008 20.8956L167.015 32.3475C167.098 33.2879 166.958 34.1675 166.596 34.9863C166.252 35.8196 165.766 36.5048 165.139 37.0418C164.511 37.5788 163.819 38.0092 163.06 38.3328C162.301 38.6565 161.54 38.852 160.775 38.9192C159.468 39.0341 158.158 38.8441 156.845 38.3491C155.549 37.8527 154.848 37.0952 154.742 36.0765C154.72 35.8215 154.782 35.6153 154.929 35.4578C155.093 35.3149 155.295 35.2329 155.534 35.2119C155.789 35.1895 156.018 35.2416 156.222 35.3682C156.426 35.4949 156.538 35.6698 156.557 35.8929C156.602 36.4029 157.091 36.7535 158.023 36.9446C158.957 37.1516 159.862 37.2166 160.739 37.1395C161.456 37.0765 162.153 36.8786 162.831 36.546C163.525 36.228 164.123 35.7177 164.623 35.0152C165.125 34.3286 165.338 33.547 165.261 32.6704L165.017 29.8971C163.712 31.6822 161.936 32.6735 159.689 32.8711C158.127 33.0084 156.709 32.6833 155.435 31.8958C154.16 31.0924 153.458 29.9655 153.331 28.5151Z" fill="black"/>
</svg>
