<svg width="33" height="34" viewBox="0 0 33 34" fill="none" xmlns="http://www.w3.org/2000/svg">
<path id="Vector" d="M27.542 10.4045L27.542 10.4045L22.7243 5.5836L22.7242 5.58346C21.0657 3.92253 19.8614 2.71895 18.854 1.97133C17.8536 1.22886 17.151 1.01542 16.4767 1.16403C15.8035 1.31255 15.2562 1.80198 14.6604 2.89718C14.0606 3.9998 13.4735 5.5986 12.6659 7.80209C12.6659 7.8021 12.6659 7.80211 12.6659 7.80212L11.5806 10.7641C11.57 10.793 11.5595 10.8217 11.5491 10.85C11.1534 11.9307 10.9099 12.5958 10.4649 13.1179C10.2662 13.3513 10.0401 13.5598 9.7915 13.7389L9.79127 13.7391C9.23844 14.1369 8.56097 14.3236 7.46614 14.6253L27.542 10.4045ZM27.542 10.4045C29.1891 12.0524 30.3826 13.249 31.1246 14.2507C31.8612 15.2452 32.0746 15.9453 31.9289 16.6185L31.9288 16.6189C31.7839 17.2909 31.3008 17.8394 30.219 18.4398C29.1296 19.0445 27.5486 19.6398 25.3688 20.458L25.3686 20.4581L22.3724 21.5841L22.3724 21.5841C22.339 21.5967 22.3059 21.6091 22.2733 21.6213C21.2087 22.0213 20.5503 22.2686 20.0357 22.714L20.0352 22.7144C19.8097 22.91 19.608 23.1303 19.4341 23.3716L19.4327 23.3735C19.0358 23.9296 18.8496 24.6075 18.5468 25.7101C18.5382 25.7413 18.5295 25.7728 18.5208 25.8046C18.143 27.1757 17.8706 28.1618 17.5853 28.8721C17.2997 29.5834 17.0376 29.9192 16.7417 30.0882L16.7417 30.0883C16.4432 30.2589 16.1048 30.3474 15.7597 30.3474C15.4197 30.3474 15.0265 30.1855 14.427 29.7084C13.8283 29.2319 13.1048 28.509 12.0999 27.5041L9.71815 25.1191L9.3644 24.7649L9.01061 25.1191L1.74537 32.3924C1.60562 32.522 1.42127 32.5928 1.23057 32.59C1.03771 32.5872 0.853535 32.5093 0.717146 32.3729L0.363591 32.7265L0.717145 32.3729C0.580755 32.2365 0.502891 32.0524 0.500079 31.8595C0.497298 31.6687 0.56817 31.4843 0.697809 31.3445L7.96487 24.071L8.31811 23.7174L7.96471 23.364L5.66423 21.0636L27.542 10.4045ZM4.31192 15.5848C5.01774 15.3015 5.99685 15.0307 7.35739 14.6553L5.66394 21.0633C4.66657 20.0643 3.94933 19.3451 3.47575 18.7502C3.00149 18.1544 2.83908 17.7632 2.83692 17.4247L2.83692 17.4245C2.83457 17.0726 2.92594 16.7264 3.10163 16.4215C3.27054 16.1285 3.6051 15.8685 4.31192 15.5848ZM25.5445 20.9261C29.8731 19.3013 32.0374 18.4872 32.4176 16.7243L19.8397 23.664C19.9908 23.4544 20.1663 23.2626 20.3629 23.092C20.8091 22.7059 21.3882 22.4882 22.5435 22.0539L22.5483 22.0521L25.5445 20.9261Z" fill="white" stroke="black"/>
</svg>
