<svg width="146" height="187" viewBox="0 0 146 187" fill="none" xmlns="http://www.w3.org/2000/svg">
<path id="Vector" d="M12.7581 0.922363C12.5264 5.13166 12.6423 9.28133 13.0478 13.3416C10.9625 15.6549 10.3253 18.797 11.0783 22.5352C11.7734 25.8741 13.8008 29.511 17.1025 32.3132C18.8403 37.5599 21.0993 42.5682 23.648 47.159C11.31 44.0587 3.02673 34.8173 0.883499 24.8605C-0.564621 18.0338 0.941422 10.5453 6.03883 5.38207C7.89243 3.50995 10.1515 2.01344 12.7581 0.922363ZM134.401 1.4053C136.544 2.43676 138.397 3.76036 139.961 5.35822C145.059 10.5215 146.565 18.0159 145.117 24.8605C142.916 34.9962 134.401 44.2972 121.773 47.3379C124.438 42.6874 126.755 37.7388 128.608 32.5517C132.084 29.6899 134.169 25.9933 134.922 22.5352C135.617 19.0712 135.154 16.12 133.416 13.8662C133.995 9.75831 134.343 5.59075 134.401 1.4053ZM123.742 6.02002C122.584 21.9927 116.444 37.858 107.639 49.9016C97.9079 63.3165 85.1644 71.604 73.5794 71.604C61.8206 71.604 48.5558 63.8531 38.6506 50.9152C29.5564 39.1697 23.4163 23.2507 23.1267 6.02002H123.742ZM82.0944 81.3223C84.5272 85.6151 86.0912 90.7425 86.6704 94.0814L73.5794 107.556L60.4883 94.0814C61.0676 90.7425 62.6316 85.6747 65.0065 81.3819C67.8448 82.0378 70.6831 82.3359 73.5794 82.3359C76.4756 82.3359 79.314 81.9781 82.0944 81.3223ZM77.3445 118.824L85.8595 166.999H61.2993L69.8143 118.824L73.5794 122.7L77.3445 118.824ZM96.1701 177.731V186.078H50.9886V177.731H96.1701Z" fill="white"/>
</svg>
